<svg id="Capa_1" enable-background="new 0 0 483.254 483.254" height="512" viewBox="0 0 483.254 483.254" width="512" xmlns="http://www.w3.org/2000/svg"><g><g id="icon_46_"><path d="m58.344 0h366.566c6.51 0 11.787 5.277 11.787 11.787v459.681c0 6.51-5.277 11.787-11.787 11.787h-366.566c-6.51 0-11.787-5.277-11.787-11.787v-459.681c0-6.51 5.278-11.787 11.787-11.787z" fill="#947dce"/><path d="m69.754 420.897v-358.539c22.601 0 40.923-18.322 40.923-40.923h261.9c0 22.601 18.322 40.923 40.923 40.923v358.539c-22.601 0-40.923 18.322-40.923 40.923h-261.9c0-22.601-18.322-40.923-40.923-40.923z" fill=" #d1c5f0"/><path d="m121.132 450.028c-4.555-19.674-19.917-35.037-39.591-39.591v-337.619c19.674-4.555 35.037-19.917 39.591-39.592h240.991c4.555 19.674 19.917 35.037 39.592 39.592v337.618c-19.674 4.555-35.037 19.917-39.592 39.591h-240.991z" fill="#eeefee"/><g fill="#dbd8dd"><path d="m140.568 77.15h202.124v11.604h-202.124z"/><path d="m166.959 122.328h149.337v11.604h-149.337z"/><path d="m116.671 167.512h249.913v11.604h-249.913z"/><path d="m116.671 212.697h249.913v11.604h-249.913z"/><path d="m116.671 303.059h136.272v11.604h-136.272z"/><path d="m116.671 338.42h76.743v11.604h-76.743z"/><path d="m116.671 373.78h111.962v11.604h-111.962z"/></g><path d="m323.592 353.283-20.974 3.854c-1.498 14.882-6.881 29.109-15.612 41.253 4.959-1.105 9.807-2.658 14.486-4.638.589 2.092.831 3.153 1.297 5.304.765 3.435 1.324 6.912 1.674 10.414 13.3-20.898 18.699-35.832 19.129-56.187z" fill="#ef5261"/><path d="m309.43 355.882c-1.182 14.097-5.631 27.725-12.995 39.804 2.039-.701 3.059-1.084 5.086-1.904.589 2.092.831 3.153 1.297 5.304 8.257-13.473 13.055-28.778 13.967-44.554z" fill="#da364c"/><path d="m330.027 353.283 20.974 3.854c1.484 14.877 6.851 29.104 15.564 41.253-4.959-1.105-9.807-2.658-14.486-4.638-.589 2.092-.831 3.153-1.297 5.304-.765 3.435-1.324 6.912-1.674 10.414-13.276-20.898-18.668-35.832-19.081-56.187z" fill="#ef5261"/><path d="m344.171 355.882c1.189 14.099 5.647 27.727 13.018 39.804-2.039-.701-3.059-1.084-5.086-1.904-.589 2.092-.831 3.153-1.297 5.304-8.256-13.473-13.055-28.778-13.967-44.554z" fill="#da364c"/><path d="m374.316 326.456c0-2.947-7.261-5.127-7.809-7.903s5.304-7.661 4.202-10.284-8.651-1.915-10.249-4.296c-1.597-2.381 1.974-9.076-.059-11.109s-8.71 1.544-11.109-.065-1.621-9.141-4.296-10.249c-2.676-1.108-7.426 4.768-10.29 4.202s-4.962-7.809-7.903-7.809-5.127 7.261-7.903 7.809-7.661-5.304-10.284-4.202-1.915 8.651-4.296 10.249-9.076-1.974-11.109.059 1.544 8.71-.065 11.109-9.141 1.621-10.249 4.296c-1.108 2.676 4.768 7.426 4.202 10.29s-7.809 4.968-7.809 7.903 7.261 5.127 7.809 7.903-5.304 7.661-4.202 10.284 8.651 1.915 10.249 4.296-1.974 9.076.059 11.109 8.71-1.544 11.109.065 1.621 9.141 4.296 10.249c2.676 1.108 7.426-4.768 10.29-4.202s4.962 7.809 7.903 7.809 5.127-7.261 7.903-7.809 7.661 5.304 10.284 4.202 1.915-8.651 4.296-10.249c2.381-1.597 9.076 1.974 11.109-.059s-1.544-8.71.065-11.109 9.141-1.621 10.249-4.296c1.108-2.676-4.768-7.426-4.202-10.29s7.809-4.968 7.809-7.903z" fill="#f6c863"/><circle cx="326.798" cy="326.456" fill="#eab54e" r="30.981"/></g></g></svg>