<svg width="58" height="60" viewBox="0 0 58 60" fill="none" xmlns="http://www.w3.org/2000/svg">
<path d="M31.1881 21.0251C31.1499 20.7948 31.0599 20.577 30.9252 20.3894C30.7905 20.2018 30.615 20.0496 30.413 19.9453C29.0652 19.25 26.1075 18.2232 26.1075 18.2232V17.2129L26.1899 17.1487C26.764 16.6943 27.148 16.0295 27.2627 15.2911L27.2793 15.1834H27.3595C27.5764 15.1833 27.7882 15.1164 27.9682 14.9912C28.1481 14.8661 28.2879 14.6883 28.3698 14.4806C28.4673 14.2983 28.5184 14.0933 28.5184 13.885C28.5184 13.7415 28.492 13.5994 28.4407 13.4661C28.415 13.3204 28.3367 13.1902 28.2217 13.1019L27.9488 12.9305L28.0166 12.6241C28.5096 10.4012 26.8449 8.39893 24.6096 8.34375C24.5552 8.34268 24.5014 8.34215 24.448 8.34322C24.3947 8.34215 24.3408 8.34268 24.2865 8.34375C22.0512 8.39893 20.3865 10.4012 20.8794 12.6241L20.9473 12.9305L20.6744 13.1019C20.5594 13.1902 20.4811 13.3204 20.4554 13.4661C20.404 13.5994 20.3777 13.7415 20.3777 13.885C20.3776 14.0933 20.4288 14.2983 20.5263 14.4806C20.6082 14.6883 20.748 14.866 20.9279 14.9912C21.1078 15.1164 21.3197 15.1833 21.5365 15.1834H21.6168L21.6333 15.291C21.7481 16.0294 22.132 16.6942 22.7062 17.1486L22.7885 17.2129V18.2231C22.7885 18.2231 19.8309 19.25 18.4831 19.9452C18.281 20.0496 18.1055 20.2018 17.9709 20.3894C17.8362 20.577 17.7462 20.7948 17.708 21.0251C17.5474 22.2673 17.4566 23.5182 17.4362 24.7714H31.4599C31.4394 23.5182 31.3487 22.2674 31.1881 21.0251Z" fill="#53CFB8"/>
<path d="M30.153 43.9894H20.1164C19.8922 43.9894 19.6773 44.0815 19.5188 44.2455C19.3603 44.4094 19.2712 44.6318 19.2712 44.8637C19.2712 45.0956 19.3603 45.318 19.5188 45.482C19.6773 45.6459 19.8922 45.738 20.1164 45.738H30.153C30.3772 45.738 30.5922 45.6459 30.7507 45.482C30.9092 45.318 30.9982 45.0956 30.9982 44.8637C30.9982 44.6318 30.9092 44.4094 30.7507 44.2455C30.5922 44.0815 30.3772 43.9894 30.153 43.9894V43.9894Z" fill="#53CFB8"/>
<path d="M30.1531 37.869H10.608C10.3838 37.869 10.1689 37.9611 10.0104 38.1251C9.85186 38.2891 9.76282 38.5115 9.76282 38.7434C9.76282 38.9752 9.85186 39.1976 10.0104 39.3616C10.1689 39.5256 10.3838 39.6177 10.608 39.6177H30.1531C30.3772 39.6177 30.5922 39.5256 30.7507 39.3616C30.9092 39.1976 30.9982 38.9752 30.9982 38.7434C30.9982 38.5115 30.9092 38.2891 30.7507 38.1251C30.5922 37.9611 30.3772 37.869 30.1531 37.869H30.1531Z" fill="#53CFB8"/>
<path d="M30.1531 31.7487H10.608C10.3838 31.7487 10.1689 31.8408 10.0104 32.0048C9.85186 32.1687 9.76282 32.3911 9.76282 32.623C9.76282 32.8549 9.85186 33.0773 10.0104 33.2413C10.1689 33.4052 10.3838 33.4973 10.608 33.4973H30.1531C30.3772 33.4973 30.5922 33.4052 30.7507 33.2413C30.9092 33.0773 30.9982 32.8549 30.9982 32.623C30.9982 32.3911 30.9092 32.1687 30.7507 32.0048C30.5922 31.8408 30.3772 31.7487 30.1531 31.7487H30.1531Z" fill="#53CFB8"/>
<rect x="1.96667" y="3" width="44.4" height="51" rx="2" stroke="#53CFB8" stroke-width="2"/>
</svg>
